<svg xmlns="http://www.w3.org/2000/svg" viewBox="0 0 400 56" width="400" height="56">
  <defs>
    <!-- Pattern adapté pour les gros boutons -->
    <!-- Pattern de luxe dense avec plus de pattes -->
    <pattern id="pawPatternLarge" x="0" y="0" width="60" height="40" patternUnits="userSpaceOnUse">
      
      <!-- Ligne 1 - Pattes principales -->
      <g opacity="0.11">
        <!-- Patte 1.1 -->
        <ellipse cx="12" cy="10" rx="3.5" ry="2.8" fill="#8B4513" />
        <ellipse cx="8" cy="5.5" rx="1.2" ry="1.8" fill="#8B4513" transform="rotate(-15 8 5.5)" />
        <ellipse cx="10.5" cy="4.5" rx="1.2" ry="1.8" fill="#8B4513" transform="rotate(0 10.5 4.5)" />
        <ellipse cx="13.5" cy="4.5" rx="1.2" ry="1.8" fill="#8B4513" transform="rotate(0 13.5 4.5)" />
        <ellipse cx="16" cy="5.5" rx="1.2" ry="1.8" fill="#8B4513" transform="rotate(15 16 5.5)" />
        
        <!-- Patte 1.2 -->
        <ellipse cx="48" cy="10" rx="3.5" ry="2.8" fill="#8B4513" />
        <ellipse cx="44" cy="5.5" rx="1.2" ry="1.8" fill="#8B4513" transform="rotate(-15 44 5.5)" />
        <ellipse cx="46.5" cy="4.5" rx="1.2" ry="1.8" fill="#8B4513" transform="rotate(0 46.5 4.5)" />
        <ellipse cx="49.5" cy="4.5" rx="1.2" ry="1.8" fill="#8B4513" transform="rotate(0 49.5 4.5)" />
        <ellipse cx="52" cy="5.5" rx="1.2" ry="1.8" fill="#8B4513" transform="rotate(15 52 5.5)" />
      </g>

      <!-- Ligne 2 - Pattes décalées -->
      <g opacity="0.11">
        <!-- Patte 2.1 -->
        <ellipse cx="30" cy="25" rx="3.5" ry="2.8" fill="#8B4513" />
        <ellipse cx="26" cy="20.5" rx="1.2" ry="1.8" fill="#8B4513" transform="rotate(-15 26 20.5)" />
        <ellipse cx="28.5" cy="19.5" rx="1.2" ry="1.8" fill="#8B4513" transform="rotate(0 28.5 19.5)" />
        <ellipse cx="31.5" cy="19.5" rx="1.2" ry="1.8" fill="#8B4513" transform="rotate(0 31.5 19.5)" />
        <ellipse cx="34" cy="20.5" rx="1.2" ry="1.8" fill="#8B4513" transform="rotate(15 34 20.5)" />
      </g>

      <!-- Ligne 3 - Pattes de base -->
      <g opacity="0.11">
        <!-- Patte 3.1 -->
        <ellipse cx="12" cy="35" rx="3.5" ry="2.8" fill="#8B4513" />
        <ellipse cx="8" cy="30.5" rx="1.2" ry="1.8" fill="#8B4513" transform="rotate(-15 8 30.5)" />
        <ellipse cx="10.5" cy="29.5" rx="1.2" ry="1.8" fill="#8B4513" transform="rotate(0 10.5 29.5)" />
        <ellipse cx="13.5" cy="29.5" rx="1.2" ry="1.8" fill="#8B4513" transform="rotate(0 13.5 29.5)" />
        <ellipse cx="16" cy="30.5" rx="1.2" ry="1.8" fill="#8B4513" transform="rotate(15 16 30.5)" />
        
        <!-- Patte 3.2 -->
        <ellipse cx="48" cy="35" rx="3.5" ry="2.8" fill="#8B4513" />
        <ellipse cx="44" cy="30.5" rx="1.2" ry="1.8" fill="#8B4513" transform="rotate(-15 44 30.5)" />
        <ellipse cx="46.5" cy="29.5" rx="1.2" ry="1.8" fill="#8B4513" transform="rotate(0 46.5 29.5)" />
        <ellipse cx="49.5" cy="29.5" rx="1.2" ry="1.8" fill="#8B4513" transform="rotate(0 49.5 29.5)" />
        <ellipse cx="52" cy="30.5" rx="1.2" ry="1.8" fill="#8B4513" transform="rotate(15 52 30.5)" />
      </g>

      <!-- Petites pattes d'accent pour combler l'espace -->
      <g opacity="0.07">
        <!-- Accent rangée du haut -->
        <ellipse cx="30" cy="6" rx="2.2" ry="1.8" fill="#8B4513" />
        <ellipse cx="27.5" cy="2.5" rx="0.8" ry="1.2" fill="#8B4513" />
        <ellipse cx="29" cy="2" rx="0.8" ry="1.2" fill="#8B4513" />
        <ellipse cx="31" cy="2" rx="0.8" ry="1.2" fill="#8B4513" />
        <ellipse cx="32.5" cy="2.5" rx="0.8" ry="1.2" fill="#8B4513" />
        
        <!-- Accent milieu gauche -->
        <ellipse cx="6" cy="20" rx="2.2" ry="1.8" fill="#8B4513" />
        <ellipse cx="3.5" cy="16.5" rx="0.8" ry="1.2" fill="#8B4513" />
        <ellipse cx="5" cy="16" rx="0.8" ry="1.2" fill="#8B4513" />
        <ellipse cx="7" cy="16" rx="0.8" ry="1.2" fill="#8B4513" />
        <ellipse cx="8.5" cy="16.5" rx="0.8" ry="1.2" fill="#8B4513" />
        
        <!-- Accent milieu droite -->
        <ellipse cx="54" cy="20" rx="2.2" ry="1.8" fill="#8B4513" />
        <ellipse cx="51.5" cy="16.5" rx="0.8" ry="1.2" fill="#8B4513" />
        <ellipse cx="53" cy="16" rx="0.8" ry="1.2" fill="#8B4513" />
        <ellipse cx="55" cy="16" rx="0.8" ry="1.2" fill="#8B4513" />
        <ellipse cx="56.5" cy="16.5" rx="0.8" ry="1.2" fill="#8B4513" />
      </g>
    </pattern>
  </defs>
  
  <!-- Application du pattern sur toute la surface -->
  <rect x="0" y="0" width="400" height="56" fill="url(#pawPatternLarge)" />
</svg>